<svg xmlns="http://www.w3.org/2000/svg" xmlns:oryx="http://oryx-editor.org" id="_DD15D060-B2BF-4093-8339-49E8EEC1E6C1" width="1763" height="451" xmlns:xlink="http://www.w3.org/1999/xlink" xmlns:svg="http://www.w3.org/2000/svg"><defs><marker id="_9FC8BB20-E681-4636-84AF-2FFA298EB0F8start" refX="1" refY="5" markerUnits="userSpaceOnUse" markerWidth="17" markerHeight="11" orient="auto" fill="#000000" stroke="#000000"> 	  		<path id="_9FC8BB20-E681-4636-84AF-2FFA298EB0F8conditional" d="M 0 5 L 8 0 L 16 5 L 8 10 L 0 5" fill="white" stroke="#000000" stroke-width="1" display="none"/> 			<path id="_9FC8BB20-E681-4636-84AF-2FFA298EB0F8default" d="M 5 0 L 11 10" fill="white" stroke="#000000" stroke-width="1" display="none"/> 	  	</marker><marker id="_9FC8BB20-E681-4636-84AF-2FFA298EB0F8end" refX="15" refY="6" markerUnits="userSpaceOnUse" markerWidth="15" markerHeight="12" orient="auto" fill="#000000" stroke="#000000"> 	  		<path id="_9FC8BB20-E681-4636-84AF-2FFA298EB0F8frame2" d="M 0 1 L 15 6 L 0 11z" fill="#000000" stroke="#000000" stroke-linejoin="round" stroke-width="2"/> 	  	</marker><marker id="_38D79760-46B2-4449-B443-770602F4C54Estart" refX="1" refY="5" markerUnits="userSpaceOnUse" markerWidth="17" markerHeight="11" orient="auto" fill="#000000" stroke="#000000"> 	  		<path id="_38D79760-46B2-4449-B443-770602F4C54Econditional" d="M 0 5 L 8 0 L 16 5 L 8 10 L 0 5" fill="white" stroke="#000000" stroke-width="1" display="none"/> 			<path id="_38D79760-46B2-4449-B443-770602F4C54Edefault" d="M 5 0 L 11 10" fill="white" stroke="#000000" stroke-width="1" display="none"/> 	  	</marker><marker id="_38D79760-46B2-4449-B443-770602F4C54Eend" refX="15" refY="6" markerUnits="userSpaceOnUse" markerWidth="15" markerHeight="12" orient="auto" fill="#000000" stroke="#000000"> 	  		<path id="_38D79760-46B2-4449-B443-770602F4C54Eframe2" d="M 0 1 L 15 6 L 0 11z" fill="#000000" stroke="#000000" stroke-linejoin="round" stroke-width="2"/> 	  	</marker><marker id="_1FE0AADB-A776-4D81-B0A2-E2DEA5211A2Fstart" refX="1" refY="5" markerUnits="userSpaceOnUse" markerWidth="17" markerHeight="11" orient="auto" fill="#000000" stroke="#000000"> 	  		<path id="_1FE0AADB-A776-4D81-B0A2-E2DEA5211A2Fconditional" d="M 0 5 L 8 0 L 16 5 L 8 10 L 0 5" fill="white" stroke="#000000" stroke-width="1" display="none"/> 			<path id="_1FE0AADB-A776-4D81-B0A2-E2DEA5211A2Fdefault" d="M 5 0 L 11 10" fill="white" stroke="#000000" stroke-width="1" display="none"/> 	  	</marker><marker id="_1FE0AADB-A776-4D81-B0A2-E2DEA5211A2Fend" refX="15" refY="6" markerUnits="userSpaceOnUse" markerWidth="15" markerHeight="12" orient="auto" fill="#000000" stroke="#000000"> 	  		<path id="_1FE0AADB-A776-4D81-B0A2-E2DEA5211A2Fframe2" d="M 0 1 L 15 6 L 0 11z" fill="#000000" stroke="#000000" stroke-linejoin="round" stroke-width="2"/> 	  	</marker><marker id="_44440B58-5497-4B8F-B4CD-65AA8AC94EE4start" refX="1" refY="5" markerUnits="userSpaceOnUse" markerWidth="17" markerHeight="11" orient="auto" fill="#000000" stroke="#000000"> 	  		<path id="_44440B58-5497-4B8F-B4CD-65AA8AC94EE4conditional" d="M 0 5 L 8 0 L 16 5 L 8 10 L 0 5" fill="white" stroke="#000000" stroke-width="1" display="none"/> 			<path id="_44440B58-5497-4B8F-B4CD-65AA8AC94EE4default" d="M 5 0 L 11 10" fill="white" stroke="#000000" stroke-width="1" display="none"/> 	  	</marker><marker id="_44440B58-5497-4B8F-B4CD-65AA8AC94EE4end" refX="15" refY="6" markerUnits="userSpaceOnUse" markerWidth="15" markerHeight="12" orient="auto" fill="#000000" stroke="#000000"> 	  		<path id="_44440B58-5497-4B8F-B4CD-65AA8AC94EE4frame2" d="M 0 1 L 15 6 L 0 11z" fill="#000000" stroke="#000000" stroke-linejoin="round" stroke-width="2"/> 	  	</marker><marker id="_35C611A0-09D4-4685-B269-3983C9105686start" refX="1" refY="5" markerUnits="userSpaceOnUse" markerWidth="17" markerHeight="11" orient="auto" fill="#000000" stroke="#000000"> 	  		<path id="_35C611A0-09D4-4685-B269-3983C9105686conditional" d="M 0 5 L 8 0 L 16 5 L 8 10 L 0 5" fill="white" stroke="#000000" stroke-width="1" display="none"/> 			<path id="_35C611A0-09D4-4685-B269-3983C9105686default" d="M 5 0 L 11 10" fill="white" stroke="#000000" stroke-width="1" display="none"/> 	  	</marker><marker id="_35C611A0-09D4-4685-B269-3983C9105686end" refX="15" refY="6" markerUnits="userSpaceOnUse" markerWidth="15" markerHeight="12" orient="auto" fill="#000000" stroke="#000000"> 	  		<path id="_35C611A0-09D4-4685-B269-3983C9105686frame2" d="M 0 1 L 15 6 L 0 11z" fill="#000000" stroke="#000000" stroke-linejoin="round" stroke-width="2"/> 	  	</marker><marker id="_12DCFA86-B0D2-4215-855E-3730A40BA390start" refX="1" refY="5" markerUnits="userSpaceOnUse" markerWidth="17" markerHeight="11" orient="auto" fill="#000000" stroke="#000000"> 	  		<path id="_12DCFA86-B0D2-4215-855E-3730A40BA390conditional" d="M 0 5 L 8 0 L 16 5 L 8 10 L 0 5" fill="white" stroke="#000000" stroke-width="1" display="none"/> 			<path id="_12DCFA86-B0D2-4215-855E-3730A40BA390default" d="M 5 0 L 11 10" fill="white" stroke="#000000" stroke-width="1" display="none"/> 	  	</marker><marker id="_12DCFA86-B0D2-4215-855E-3730A40BA390end" refX="15" refY="6" markerUnits="userSpaceOnUse" markerWidth="15" markerHeight="12" orient="auto" fill="#000000" stroke="#000000"> 	  		<path id="_12DCFA86-B0D2-4215-855E-3730A40BA390frame2" d="M 0 1 L 15 6 L 0 11z" fill="#000000" stroke="#000000" stroke-linejoin="round" stroke-width="2"/> 	  	</marker></defs><g stroke="none" font-family="Verdana, sans-serif" font-size-adjust="none" font-style="normal" font-variant="normal" font-weight="normal" line-heigth="normal" font-size="12"><g class="stencils" transform="translate(15, 16)"><g class="me"/><g class="children"><g id="_B79AB419-6764-4DDA-99B2-9FF4E210AFF3" bpmn2nodeid="_1AE141B0-B7A1-4465-8E35-F15A90AC19B2"><g class="stencils" transform="translate(1275, 355)"><g class="me"><g pointer-events="fill" id="_B79AB419-6764-4DDA-99B2-9FF4E210AFF3">      <defs id="_B79AB419-6764-4DDA-99B2-9FF4E210AFF3__B79AB419-6764-4DDA-99B2-9FF4E210AFF3_5"> 		<radialGradient id="_B79AB419-6764-4DDA-99B2-9FF4E210AFF3background" cx="10%" cy="10%" r="100%" fx="10%" fy="10%"> 			<stop offset="0%" stop-color="#ffffff" stop-opacity="1" id="_B79AB419-6764-4DDA-99B2-9FF4E210AFF3__B79AB419-6764-4DDA-99B2-9FF4E210AFF3_6"/> 			<stop id="_B79AB419-6764-4DDA-99B2-9FF4E210AFF3fill_el" offset="100%" stop-color="#9acd32" stop-opacity="1"/> 		</radialGradient> 	</defs> 	     <circle id="_B79AB419-6764-4DDA-99B2-9FF4E210AFF3bg_frame" cx="15" cy="15" r="15" stroke="#000000" fill="url(#_B79AB419-6764-4DDA-99B2-9FF4E210AFF3background) white" stroke-width="1" style="stroke-dasharray: 5.5, 3"/>      <circle id="_B79AB419-6764-4DDA-99B2-9FF4E210AFF3frame" cx="15" cy="15" r="15" stroke="#000000" fill="none" stroke-width="1" display="inherit"/>      <path id="_B79AB419-6764-4DDA-99B2-9FF4E210AFF3body" d=" M7.7124971 20.247342  L22.333334 20.247342  L15.022915000000001 7.575951200000001  L7.7124971 20.247342  z" stroke="black" style="fill:none;stroke-width:1.4;stroke-miterlimit:4;stroke-dasharray:none"/> 	<text font-size="11" id="_B79AB419-6764-4DDA-99B2-9FF4E210AFF3text_name" x="15" y="32" oryx:align="top center" stroke="black" stroke-width="0pt" letter-spacing="-0.01px" fill="#000000" text-anchor="middle" transform="rotate(0 15 32)" visibility="inherit" oryx:fontSize="11"/>   </g></g><g class="children" style="overflow:hidden"/><g class="edge"/></g><g class="controls"><g class="dockers"/><g class="magnets" transform="translate(1275, 355)"><g pointer-events="all" display="none" transform="translate(7, 7)"><circle cx="8" cy="8" r="4" stroke="none" fill="red" fill-opacity="0.3"/></g></g></g></g><g id="_EFD36D1B-9976-4B77-AF4F-95C29177EB03" bpmn2nodeid="_C8E0B3BD-E611-47E3-AAC1-CBF4E3693102"><g class="stencils" transform="translate(1350, 330)"><g class="me"><g pointer-events="fill" oryx:minimumSize="50 40" id="_EFD36D1B-9976-4B77-AF4F-95C29177EB03">   	<defs id="_EFD36D1B-9976-4B77-AF4F-95C29177EB03__EFD36D1B-9976-4B77-AF4F-95C29177EB03_17"> 		<radialGradient id="_EFD36D1B-9976-4B77-AF4F-95C29177EB03background" cx="10%" cy="10%" r="100%" fx="10%" fy="10%"> 			<stop offset="0%" stop-color="#ffffff" stop-opacity="1" id="_EFD36D1B-9976-4B77-AF4F-95C29177EB03__EFD36D1B-9976-4B77-AF4F-95C29177EB03_18"/> 			<stop id="_EFD36D1B-9976-4B77-AF4F-95C29177EB03fill_el" offset="100%" stop-color="#fafad2" stop-opacity="1"/> 		</radialGradient> 		<radialGradient id="_EFD36D1B-9976-4B77-AF4F-95C29177EB03borderbackground" cx="10%" cy="10%" r="100%" fx="10%" fy="10%"> 			<stop offset="0%" stop-color="#ffffff" stop-opacity="1" id="_EFD36D1B-9976-4B77-AF4F-95C29177EB03__EFD36D1B-9976-4B77-AF4F-95C29177EB03_19"/> 			<stop id="_EFD36D1B-9976-4B77-AF4F-95C29177EB03fill_border" offset="100%" stop-color="#000000" stop-opacity="1" stroke="#000000"/> 		</radialGradient> 	</defs> 	 	<rect id="_EFD36D1B-9976-4B77-AF4F-95C29177EB03text_frame" oryx:anchors="bottom top right left" x="1" y="1" width="94" height="79" rx="10" ry="10" stroke="none" stroke-width="0" fill="none"/> 	<rect id="_EFD36D1B-9976-4B77-AF4F-95C29177EB03bg_frame" oryx:resize="vertical horizontal" x="0" y="0" width="100" height="80" rx="10" ry="10" stroke="#000000" stroke-width="1" fill="url(#_EFD36D1B-9976-4B77-AF4F-95C29177EB03background) #ffffcc"/> 		<text font-size="12" id="_EFD36D1B-9976-4B77-AF4F-95C29177EB03text_name" x="50" y="40" oryx:align="middle center" oryx:fittoelem="text_frame" stroke="black" text-anchor="middle" stroke-width="0pt" letter-spacing="-0.01px" fill="#000000" transform="rotate(0 50 40)" visibility="inherit" oryx:fontSize="12"><tspan x="50" y="40" dy="-1" id="ext-gen947">OverreadToAu</tspan><tspan x="50" y="40" dy="11" id="ext-gen946">ditorBR</tspan></text>     <g id="_EFD36D1B-9976-4B77-AF4F-95C29177EB03manualTask" transform="scale(0.7,0.7) translate(8,8)" display="none">     	<path oryx:anchors="top left" id="_EFD36D1B-9976-4B77-AF4F-95C29177EB03frame" style="opacity:1;fill:none;fill-opacity:1;stroke-width:1" d="M0.5,3.751l4.083-3.25c0,0,11.166,0.083,12.083,0.083s-2.417,2.917-1.5,2.917     s11.667,0,12.584,0c1.166,1.708-0.168,3.167-0.834,3.667s0.875,1.917-1,4.417c-0.75,0.25,0.75,1.875-1.333,3.333     c-1.167,0.583,0.583,1.542-1.25,2.833c-1.167,0-20.833,0.083-20.833,0.083l-2-1.333V3.751z" stroke="#000000"/> 		<path id="_EFD36D1B-9976-4B77-AF4F-95C29177EB03frame2" oryx:anchors="top left" style="opacity:1;fill:none;stroke-width:2" d="M 13.5 7 L 27 7" stroke="#000000"/> 		<path id="_EFD36D1B-9976-4B77-AF4F-95C29177EB03frame3" oryx:anchors="top left" style="opacity:1;fill:none;stroke-width:2" d="M 13.5 11 L 26 11" stroke="#000000"/> 		<path id="_EFD36D1B-9976-4B77-AF4F-95C29177EB03frame4" oryx:anchors="top left" style="opacity:1;fill:none;stroke-width:1.5" d="M 14 14.5 L 25 14.5" stroke="#000000"/> 		<path id="_EFD36D1B-9976-4B77-AF4F-95C29177EB03frame5" oryx:anchors="top left" style="opacity:1;fill:none;stroke-width:1.5" d="M 8.2 3.1 L 15 3.1" stroke="#000000"/> 	</g> 	 	<g id="_EFD36D1B-9976-4B77-AF4F-95C29177EB03businessRuleTask" transform="scale(0.7,0.7) translate(8,8)" display="inherit"> 		<rect id="_EFD36D1B-9976-4B77-AF4F-95C29177EB03frame6" oryx:anchors="top left" x="0" y="0" width="22" height="4" style="opacity:1;fill:#B3B1B3;fill-opacity:1;" stroke="#000000"/> 		<rect id="_EFD36D1B-9976-4B77-AF4F-95C29177EB03frame7" oryx:anchors="top left" x="0" y="4" style="opacity:1;fill:none;" width="22" height="12" stroke="#000000"/> 		<path id="_EFD36D1B-9976-4B77-AF4F-95C29177EB03frame8" oryx:anchors="top left" style="opacity:1;fill:none;" d="M 0 10 L 22 10" stroke="#000000"/> 		<path id="_EFD36D1B-9976-4B77-AF4F-95C29177EB03frame9" oryx:anchors="top left" style="opacity:1; fill:none;" d="M 7 4 L 7 16" stroke="#000000"/> 	</g> 	 	<g id="_EFD36D1B-9976-4B77-AF4F-95C29177EB03scriptTask" transform="scale(0.7,0.7) translate(8,8)" display="none"> 		<path oryx:anchors="top left" id="_EFD36D1B-9976-4B77-AF4F-95C29177EB03frame10" style="opacity:1;fill:none;" stroke="#000000" d="M6.402,0.5h14.5c0,0-5.833,2.833-5.833,5.583s4.417,6,4.417,9.167    s-4.167,5.083-4.167,5.083H0.235c0,0,5-2.667,5-5s-4.583-6.75-4.583-9.25S6.402,0.5,6.402,0.5z"/> 		<path oryx:anchors="top left" id="_EFD36D1B-9976-4B77-AF4F-95C29177EB03frame11" style="opacity:1;fill:none;stroke-width:1.5" d="M 3.5 4.5 L 13.5 4.5" stroke="#000000"/> 		<path oryx:anchors="top left" id="_EFD36D1B-9976-4B77-AF4F-95C29177EB03frame12" style="opacity:1;fill:none;stroke-width:1.5" d="M 3.8 8.5 L 13.8 8.5" stroke="#000000"/> 		<path oryx:anchors="top left" id="_EFD36D1B-9976-4B77-AF4F-95C29177EB03frame13" style="opacity:1;fill:none;stroke-width:1.5" d="M 6.3 12.5 L 16.3 12.5" stroke="#000000"/> 		<path oryx:anchors="top left" id="_EFD36D1B-9976-4B77-AF4F-95C29177EB03frame14" style="opacity:1;fill:none;stroke-width:1.5" d="M 6.5 16.5 L 16.5 16.5" stroke="#000000"/> 	</g> 	 	<g id="_EFD36D1B-9976-4B77-AF4F-95C29177EB03userTask" transform="scale(0.7,0.7) translate(8,8)" display="none"> 		<path id="_EFD36D1B-9976-4B77-AF4F-95C29177EB03frame15" oryx:anchors="top left" style="opacity:1;fill:#F4F6F7" stroke="#000000" d="M0.585,24.167h24.083v-7.833c0,0-2.333-3.917-7.083-5.167h-9.25    c-4.417,1.333-7.833,5.75-7.833,5.75L0.585,24.167z"/> 		<path id="_EFD36D1B-9976-4B77-AF4F-95C29177EB03frame16" oryx:anchors="top left" style="opacity:1;fill:none" d="M 6 20 L 6 24" stroke="#000000"/> 		<path id="_EFD36D1B-9976-4B77-AF4F-95C29177EB03frame17" oryx:anchors="top left" style="opacity:1;fill:none" d="M 20 20 L 20 24" stroke="#000000"/> 		<circle id="_EFD36D1B-9976-4B77-AF4F-95C29177EB03frame18" oryx:anchors="top left" fill="black" cx="13.002" cy="5.916" r="5.417" stroke="#000000"/> 		<path id="_EFD36D1B-9976-4B77-AF4F-95C29177EB03frame19" oryx:anchors="top left" style="opacity:1;fill:#F0EFF0;" stroke="#000000" d="M8.043,7.083c0,0,2.814-2.426,5.376-1.807s4.624-0.693,4.624-0.693    c0.25,1.688,0.042,3.75-1.458,5.584c0,0,1.083,0.75,1.083,1.5s0.125,1.875-1,3s-5.5,1.25-6.75,0S8.668,12.834,8.668,12    s0.583-1.25,1.25-1.917C8.835,9.5,7.419,7.708,8.043,7.083z"/> 	</g> 	 	<g id="_EFD36D1B-9976-4B77-AF4F-95C29177EB03serviceTask" transform="scale(0.7,0.7) translate(8,8)" display="none"> 		<polygon oryx:anchors="top left" id="_EFD36D1B-9976-4B77-AF4F-95C29177EB03frame20" style="opacity:1;fill:#ffffff" stroke="#000000" points="15.392,5.064 17.954,2.502 20.347,4.895 17.786,7.455     18.729,9.732 22.353,9.732 22.353,13.115 18.731,13.115 17.788,15.392 20.351,17.955 17.958,20.347 15.397,17.786 13.12,18.729     13.12,22.353 9.737,22.353 9.737,18.731 7.46,17.788 4.897,20.35 2.506,17.958 5.066,15.397 4.124,13.12 0.5,13.12 0.5,9.737     4.121,9.737 5.065,7.461 2.503,4.898 4.895,2.506 7.455,5.066 9.732,4.125 9.732,0.5 13.116,0.5 13.116,4.121 "/> 		<circle oryx:anchors="top left" id="_EFD36D1B-9976-4B77-AF4F-95C29177EB03frame21" style="opacity:1;fill:none" stroke="#000000" cx="11.427" cy="11.426" r="3.714"/> 		<polygon oryx:anchors="top left" id="_EFD36D1B-9976-4B77-AF4F-95C29177EB03frame22" style="opacity:1;fill:#ffffff" stroke="#000000" points="21.392,11.064 23.954,8.502 26.347,10.895 23.786,13.455     24.729,15.732 28.353,15.732 28.353,19.115 24.731,19.115 23.788,21.392 26.351,23.955 23.958,26.347 21.397,23.786 19.12,24.729     19.12,28.353 15.737,28.353 15.737,24.731 13.46,23.788 10.897,26.35 8.506,23.958 11.066,21.397 10.124,19.12 6.5,19.12     6.5,15.737 10.121,15.737 11.065,13.461 8.503,10.898 10.895,8.506 13.455,11.066 15.732,10.125 15.732,6.5 19.116,6.5     19.116,10.121 "/> 		<circle oryx:anchors="top left" id="_EFD36D1B-9976-4B77-AF4F-95C29177EB03frame23" style="opacity:1;fill:none;" stroke="#000000" cx="17.427" cy="17.426" r="3.714"/> 	</g> 	 	<g id="_EFD36D1B-9976-4B77-AF4F-95C29177EB03sendTask" display="none"> 		<path id="_EFD36D1B-9976-4B77-AF4F-95C29177EB03stframe24" oryx:anchors="left top" stroke="#FFFFFF" fill="black" stroke-width="1" d="M8,11 L8,21 L24,21 L24,11 L16,17z"/> 		<path id="_EFD36D1B-9976-4B77-AF4F-95C29177EB03stframe25" oryx:anchors="left top" stroke="#FFFFFF" fill="black" stroke-width="1" d="M7,10 L16,17 L25 10z"/> 	</g> 	 	<g id="_EFD36D1B-9976-4B77-AF4F-95C29177EB03receiveTask" display="none"> 		<path id="_EFD36D1B-9976-4B77-AF4F-95C29177EB03frame26" oryx:anchors="left top" stroke="#000000" fill="none" stroke-width="1" d="M8,11 L8,21 L24,21 L24,11z M8,11 L16,17 L24,11"/> 	</g> 	 	<g id="_EFD36D1B-9976-4B77-AF4F-95C29177EB03none" display="none"/>  	<g id="_EFD36D1B-9976-4B77-AF4F-95C29177EB03sequential" display="none">         <path oryx:anchors="bottom" fill="none" stroke="#000000" stroke-width="2" d=" M46 76  h10  M46 72  h10  M46 68  h10 " id="_EFD36D1B-9976-4B77-AF4F-95C29177EB03__EFD36D1B-9976-4B77-AF4F-95C29177EB03_20"/>     </g>   </g></g><g class="children" style="overflow:hidden"/><g class="edge"/></g><g class="controls"><g class="dockers"/><g class="magnets" transform="translate(1350, 330)"><g pointer-events="all" display="none" transform="translate(-7, 11.999999999999996)"><circle cx="8" cy="8" r="4" stroke="none" fill="red" fill-opacity="0.3"/></g><g pointer-events="all" display="none" transform="translate(-7, 31.999999999999993)"><circle cx="8" cy="8" r="4" stroke="none" fill="red" fill-opacity="0.3"/></g><g pointer-events="all" display="none" transform="translate(-7, 52)"><circle cx="8" cy="8" r="4" stroke="none" fill="red" fill-opacity="0.3"/></g><g pointer-events="all" display="none" transform="translate(17, 71)"><circle cx="8" cy="8" r="4" stroke="none" fill="red" fill-opacity="0.3"/></g><g pointer-events="all" display="none" transform="translate(42, 71)"><circle cx="8" cy="8" r="4" stroke="none" fill="red" fill-opacity="0.3"/></g><g pointer-events="all" display="none" transform="translate(66.99999999999999, 71)"><circle cx="8" cy="8" r="4" stroke="none" fill="red" fill-opacity="0.3"/></g><g pointer-events="all" display="none" transform="translate(91, 11.999999999999996)"><circle cx="8" cy="8" r="4" stroke="none" fill="red" fill-opacity="0.3"/></g><g pointer-events="all" display="none" transform="translate(91, 31.999999999999993)"><circle cx="8" cy="8" r="4" stroke="none" fill="red" fill-opacity="0.3"/></g><g pointer-events="all" display="none" transform="translate(91, 52)"><circle cx="8" cy="8" r="4" stroke="none" fill="red" fill-opacity="0.3"/></g><g pointer-events="all" display="none" transform="translate(17, -7)"><circle cx="8" cy="8" r="4" stroke="none" fill="red" fill-opacity="0.3"/></g><g pointer-events="all" display="none" transform="translate(42, -7)"><circle cx="8" cy="8" r="4" stroke="none" fill="red" fill-opacity="0.3"/></g><g pointer-events="all" display="none" transform="translate(66.99999999999999, -7)"><circle cx="8" cy="8" r="4" stroke="none" fill="red" fill-opacity="0.3"/></g><g pointer-events="all" display="none" transform="translate(42, 31.999999999999993)"><circle cx="8" cy="8" r="4" stroke="none" fill="red" fill-opacity="0.3"/></g></g></g></g><g id="_413A4A6D-FDA6-4495-8F56-4DC790338279" bpmn2nodeid="_DA24BC71-C0C3-4501-A4CC-D311B62FBD2F"><g class="stencils" transform="translate(1495, 350)"><g class="me"><g id="_413A4A6D-FDA6-4495-8F56-4DC790338279">        <defs id="_413A4A6D-FDA6-4495-8F56-4DC790338279__413A4A6D-FDA6-4495-8F56-4DC790338279_4"> 		<radialGradient id="_413A4A6D-FDA6-4495-8F56-4DC790338279background" cx="10%" cy="10%" r="100%" fx="10%" fy="10%"> 			<stop offset="0%" stop-color="#ffffff" stop-opacity="1" id="_413A4A6D-FDA6-4495-8F56-4DC790338279__413A4A6D-FDA6-4495-8F56-4DC790338279_5"/> 			<stop id="_413A4A6D-FDA6-4495-8F56-4DC790338279fill_el" offset="100%" stop-color="#f0e68c" stop-opacity="1"/> 		</radialGradient> 		<radialGradient id="_413A4A6D-FDA6-4495-8F56-4DC790338279borderbackground" cx="10%" cy="10%" r="100%" fx="10%" fy="10%"> 			<stop offset="0%" stop-color="#ffffff" stop-opacity="1" id="_413A4A6D-FDA6-4495-8F56-4DC790338279__413A4A6D-FDA6-4495-8F56-4DC790338279_6"/> 			<stop id="_413A4A6D-FDA6-4495-8F56-4DC790338279fill_border" offset="100%" stop-color="#a67f00" stop-opacity="1" stroke="#a67f00"/> 		</radialGradient> 	</defs> 	     <path d=" M0 20.5  L20.5 0  L40 20.5  L20.5 40  z" id="_413A4A6D-FDA6-4495-8F56-4DC790338279bg_frame" fill="url(#_413A4A6D-FDA6-4495-8F56-4DC790338279background) white" style="stroke-width:1" stroke="#a67f00"/>     <g id="_413A4A6D-FDA6-4495-8F56-4DC790338279frame" stroke="#a67f00">       <path id="_413A4A6D-FDA6-4495-8F56-4DC790338279frame2" d=" M13.25 12.05  L17.25 12.05  L27.65 28.95  L23.75 28.95  z" style="stroke-width:1" stroke="#a67f00" fill="url(#_413A4A6D-FDA6-4495-8F56-4DC790338279borderbackground)"/>       <path id="_413A4A6D-FDA6-4495-8F56-4DC790338279frame3" d=" M13.25 28.95  L23.75 12.05  L27.65 12.05  L17.25 28.95  z" style="stroke-width:1" stroke="#a67f00" fill="url(#_413A4A6D-FDA6-4495-8F56-4DC790338279borderbackground)"/>     </g> 	 	<text id="_413A4A6D-FDA6-4495-8F56-4DC790338279text_name" x="30.5" y="30.5" oryx:align="left top" stroke-width="0pt" letter-spacing="-0.01px" fill="#000000" text-anchor="start" transform="rotate(0 30.5 30.5)" visibility="inherit" oryx:fontSize="12"/> 	   </g></g><g class="children" style="overflow:hidden"/><g class="edge"/></g><g class="controls"><g class="dockers"/><g class="magnets" transform="translate(1495, 350)"><g pointer-events="all" display="none" transform="translate(12.5, 12.5)"><circle cx="8" cy="8" r="4" stroke="none" fill="red" fill-opacity="0.3"/></g></g></g></g><g id="_AD3E18D9-98F4-4372-8E3A-6FD8E0D48F67" bpmn2nodeid="_3BE61125-8DA4-417F-B27E-CF0C90E4A757"><g class="stencils" transform="translate(1465, 210)"><g class="me"><g pointer-events="fill" oryx:minimumSize="50 40" id="_AD3E18D9-98F4-4372-8E3A-6FD8E0D48F67">   	<defs id="_AD3E18D9-98F4-4372-8E3A-6FD8E0D48F67__AD3E18D9-98F4-4372-8E3A-6FD8E0D48F67_17"> 		<radialGradient id="_AD3E18D9-98F4-4372-8E3A-6FD8E0D48F67background" cx="10%" cy="10%" r="100%" fx="10%" fy="10%"> 			<stop offset="0%" stop-color="#ffffff" stop-opacity="1" id="_AD3E18D9-98F4-4372-8E3A-6FD8E0D48F67__AD3E18D9-98F4-4372-8E3A-6FD8E0D48F67_18"/> 			<stop id="_AD3E18D9-98F4-4372-8E3A-6FD8E0D48F67fill_el" offset="100%" stop-color="#fafad2" stop-opacity="1"/> 		</radialGradient> 		<radialGradient id="_AD3E18D9-98F4-4372-8E3A-6FD8E0D48F67borderbackground" cx="10%" cy="10%" r="100%" fx="10%" fy="10%"> 			<stop offset="0%" stop-color="#ffffff" stop-opacity="1" id="_AD3E18D9-98F4-4372-8E3A-6FD8E0D48F67__AD3E18D9-98F4-4372-8E3A-6FD8E0D48F67_19"/> 			<stop id="_AD3E18D9-98F4-4372-8E3A-6FD8E0D48F67fill_border" offset="100%" stop-color="#000000" stop-opacity="1" stroke="#000000"/> 		</radialGradient> 	</defs> 	 	<rect id="_AD3E18D9-98F4-4372-8E3A-6FD8E0D48F67text_frame" oryx:anchors="bottom top right left" x="1" y="1" width="94" height="79" rx="10" ry="10" stroke="none" stroke-width="0" fill="none"/> 	<rect id="_AD3E18D9-98F4-4372-8E3A-6FD8E0D48F67bg_frame" oryx:resize="vertical horizontal" x="0" y="0" width="100" height="80" rx="10" ry="10" stroke="#000000" stroke-width="1" fill="url(#_AD3E18D9-98F4-4372-8E3A-6FD8E0D48F67background) #ffffcc"/> 		<text font-size="12" id="_AD3E18D9-98F4-4372-8E3A-6FD8E0D48F67text_name" x="50" y="40" oryx:align="middle center" oryx:fittoelem="text_frame" stroke="black" text-anchor="middle" stroke-width="0pt" letter-spacing="-0.01px" fill="#000000" transform="rotate(0 50 40)" visibility="inherit" oryx:fontSize="12"/>     <g id="_AD3E18D9-98F4-4372-8E3A-6FD8E0D48F67manualTask" transform="scale(0.7,0.7) translate(8,8)" display="none">     	<path oryx:anchors="top left" id="_AD3E18D9-98F4-4372-8E3A-6FD8E0D48F67frame" style="opacity:1;fill:none;fill-opacity:1;stroke-width:1" d="M0.5,3.751l4.083-3.25c0,0,11.166,0.083,12.083,0.083s-2.417,2.917-1.5,2.917     s11.667,0,12.584,0c1.166,1.708-0.168,3.167-0.834,3.667s0.875,1.917-1,4.417c-0.75,0.25,0.75,1.875-1.333,3.333     c-1.167,0.583,0.583,1.542-1.25,2.833c-1.167,0-20.833,0.083-20.833,0.083l-2-1.333V3.751z" stroke="#000000"/> 		<path id="_AD3E18D9-98F4-4372-8E3A-6FD8E0D48F67frame2" oryx:anchors="top left" style="opacity:1;fill:none;stroke-width:2" d="M 13.5 7 L 27 7" stroke="#000000"/> 		<path id="_AD3E18D9-98F4-4372-8E3A-6FD8E0D48F67frame3" oryx:anchors="top left" style="opacity:1;fill:none;stroke-width:2" d="M 13.5 11 L 26 11" stroke="#000000"/> 		<path id="_AD3E18D9-98F4-4372-8E3A-6FD8E0D48F67frame4" oryx:anchors="top left" style="opacity:1;fill:none;stroke-width:1.5" d="M 14 14.5 L 25 14.5" stroke="#000000"/> 		<path id="_AD3E18D9-98F4-4372-8E3A-6FD8E0D48F67frame5" oryx:anchors="top left" style="opacity:1;fill:none;stroke-width:1.5" d="M 8.2 3.1 L 15 3.1" stroke="#000000"/> 	</g> 	 	<g id="_AD3E18D9-98F4-4372-8E3A-6FD8E0D48F67businessRuleTask" transform="scale(0.7,0.7) translate(8,8)" display="inherit"> 		<rect id="_AD3E18D9-98F4-4372-8E3A-6FD8E0D48F67frame6" oryx:anchors="top left" x="0" y="0" width="22" height="4" style="opacity:1;fill:#B3B1B3;fill-opacity:1;" stroke="#000000"/> 		<rect id="_AD3E18D9-98F4-4372-8E3A-6FD8E0D48F67frame7" oryx:anchors="top left" x="0" y="4" style="opacity:1;fill:none;" width="22" height="12" stroke="#000000"/> 		<path id="_AD3E18D9-98F4-4372-8E3A-6FD8E0D48F67frame8" oryx:anchors="top left" style="opacity:1;fill:none;" d="M 0 10 L 22 10" stroke="#000000"/> 		<path id="_AD3E18D9-98F4-4372-8E3A-6FD8E0D48F67frame9" oryx:anchors="top left" style="opacity:1; fill:none;" d="M 7 4 L 7 16" stroke="#000000"/> 	</g> 	 	<g id="_AD3E18D9-98F4-4372-8E3A-6FD8E0D48F67scriptTask" transform="scale(0.7,0.7) translate(8,8)" display="none"> 		<path oryx:anchors="top left" id="_AD3E18D9-98F4-4372-8E3A-6FD8E0D48F67frame10" style="opacity:1;fill:none;" stroke="#000000" d="M6.402,0.5h14.5c0,0-5.833,2.833-5.833,5.583s4.417,6,4.417,9.167    s-4.167,5.083-4.167,5.083H0.235c0,0,5-2.667,5-5s-4.583-6.75-4.583-9.25S6.402,0.5,6.402,0.5z"/> 		<path oryx:anchors="top left" id="_AD3E18D9-98F4-4372-8E3A-6FD8E0D48F67frame11" style="opacity:1;fill:none;stroke-width:1.5" d="M 3.5 4.5 L 13.5 4.5" stroke="#000000"/> 		<path oryx:anchors="top left" id="_AD3E18D9-98F4-4372-8E3A-6FD8E0D48F67frame12" style="opacity:1;fill:none;stroke-width:1.5" d="M 3.8 8.5 L 13.8 8.5" stroke="#000000"/> 		<path oryx:anchors="top left" id="_AD3E18D9-98F4-4372-8E3A-6FD8E0D48F67frame13" style="opacity:1;fill:none;stroke-width:1.5" d="M 6.3 12.5 L 16.3 12.5" stroke="#000000"/> 		<path oryx:anchors="top left" id="_AD3E18D9-98F4-4372-8E3A-6FD8E0D48F67frame14" style="opacity:1;fill:none;stroke-width:1.5" d="M 6.5 16.5 L 16.5 16.5" stroke="#000000"/> 	</g> 	 	<g id="_AD3E18D9-98F4-4372-8E3A-6FD8E0D48F67userTask" transform="scale(0.7,0.7) translate(8,8)" display="none"> 		<path id="_AD3E18D9-98F4-4372-8E3A-6FD8E0D48F67frame15" oryx:anchors="top left" style="opacity:1;fill:#F4F6F7" stroke="#000000" d="M0.585,24.167h24.083v-7.833c0,0-2.333-3.917-7.083-5.167h-9.25    c-4.417,1.333-7.833,5.75-7.833,5.75L0.585,24.167z"/> 		<path id="_AD3E18D9-98F4-4372-8E3A-6FD8E0D48F67frame16" oryx:anchors="top left" style="opacity:1;fill:none" d="M 6 20 L 6 24" stroke="#000000"/> 		<path id="_AD3E18D9-98F4-4372-8E3A-6FD8E0D48F67frame17" oryx:anchors="top left" style="opacity:1;fill:none" d="M 20 20 L 20 24" stroke="#000000"/> 		<circle id="_AD3E18D9-98F4-4372-8E3A-6FD8E0D48F67frame18" oryx:anchors="top left" fill="black" cx="13.002" cy="5.916" r="5.417" stroke="#000000"/> 		<path id="_AD3E18D9-98F4-4372-8E3A-6FD8E0D48F67frame19" oryx:anchors="top left" style="opacity:1;fill:#F0EFF0;" stroke="#000000" d="M8.043,7.083c0,0,2.814-2.426,5.376-1.807s4.624-0.693,4.624-0.693    c0.25,1.688,0.042,3.75-1.458,5.584c0,0,1.083,0.75,1.083,1.5s0.125,1.875-1,3s-5.5,1.25-6.75,0S8.668,12.834,8.668,12    s0.583-1.25,1.25-1.917C8.835,9.5,7.419,7.708,8.043,7.083z"/> 	</g> 	 	<g id="_AD3E18D9-98F4-4372-8E3A-6FD8E0D48F67serviceTask" transform="scale(0.7,0.7) translate(8,8)" display="none"> 		<polygon oryx:anchors="top left" id="_AD3E18D9-98F4-4372-8E3A-6FD8E0D48F67frame20" style="opacity:1;fill:#ffffff" stroke="#000000" points="15.392,5.064 17.954,2.502 20.347,4.895 17.786,7.455     18.729,9.732 22.353,9.732 22.353,13.115 18.731,13.115 17.788,15.392 20.351,17.955 17.958,20.347 15.397,17.786 13.12,18.729     13.12,22.353 9.737,22.353 9.737,18.731 7.46,17.788 4.897,20.35 2.506,17.958 5.066,15.397 4.124,13.12 0.5,13.12 0.5,9.737     4.121,9.737 5.065,7.461 2.503,4.898 4.895,2.506 7.455,5.066 9.732,4.125 9.732,0.5 13.116,0.5 13.116,4.121 "/> 		<circle oryx:anchors="top left" id="_AD3E18D9-98F4-4372-8E3A-6FD8E0D48F67frame21" style="opacity:1;fill:none" stroke="#000000" cx="11.427" cy="11.426" r="3.714"/> 		<polygon oryx:anchors="top left" id="_AD3E18D9-98F4-4372-8E3A-6FD8E0D48F67frame22" style="opacity:1;fill:#ffffff" stroke="#000000" points="21.392,11.064 23.954,8.502 26.347,10.895 23.786,13.455     24.729,15.732 28.353,15.732 28.353,19.115 24.731,19.115 23.788,21.392 26.351,23.955 23.958,26.347 21.397,23.786 19.12,24.729     19.12,28.353 15.737,28.353 15.737,24.731 13.46,23.788 10.897,26.35 8.506,23.958 11.066,21.397 10.124,19.12 6.5,19.12     6.5,15.737 10.121,15.737 11.065,13.461 8.503,10.898 10.895,8.506 13.455,11.066 15.732,10.125 15.732,6.5 19.116,6.5     19.116,10.121 "/> 		<circle oryx:anchors="top left" id="_AD3E18D9-98F4-4372-8E3A-6FD8E0D48F67frame23" style="opacity:1;fill:none;" stroke="#000000" cx="17.427" cy="17.426" r="3.714"/> 	</g> 	 	<g id="_AD3E18D9-98F4-4372-8E3A-6FD8E0D48F67sendTask" display="none"> 		<path id="_AD3E18D9-98F4-4372-8E3A-6FD8E0D48F67stframe24" oryx:anchors="left top" stroke="#FFFFFF" fill="black" stroke-width="1" d="M8,11 L8,21 L24,21 L24,11 L16,17z"/> 		<path id="_AD3E18D9-98F4-4372-8E3A-6FD8E0D48F67stframe25" oryx:anchors="left top" stroke="#FFFFFF" fill="black" stroke-width="1" d="M7,10 L16,17 L25 10z"/> 	</g> 	 	<g id="_AD3E18D9-98F4-4372-8E3A-6FD8E0D48F67receiveTask" display="none"> 		<path id="_AD3E18D9-98F4-4372-8E3A-6FD8E0D48F67frame26" oryx:anchors="left top" stroke="#000000" fill="none" stroke-width="1" d="M8,11 L8,21 L24,21 L24,11z M8,11 L16,17 L24,11"/> 	</g> 	 	<g id="_AD3E18D9-98F4-4372-8E3A-6FD8E0D48F67none" display="none"/>  	<g id="_AD3E18D9-98F4-4372-8E3A-6FD8E0D48F67sequential" display="none">         <path oryx:anchors="bottom" fill="none" stroke="#000000" stroke-width="2" d="M46,76h10M46,72h10 M46,68h10" id="_AD3E18D9-98F4-4372-8E3A-6FD8E0D48F67__AD3E18D9-98F4-4372-8E3A-6FD8E0D48F67_20"/>     </g>   </g></g><g class="children" style="overflow:hidden"/><g class="edge"/></g><g class="controls"><g class="dockers"/><g class="magnets" transform="translate(1465, 210)"><g pointer-events="all" display="none" transform="translate(-7, 12)"><circle cx="8" cy="8" r="4" stroke="none" fill="red" fill-opacity="0.3"/></g><g pointer-events="all" display="none" transform="translate(-7, 32)"><circle cx="8" cy="8" r="4" stroke="none" fill="red" fill-opacity="0.3"/></g><g pointer-events="all" display="none" transform="translate(-7, 52)"><circle cx="8" cy="8" r="4" stroke="none" fill="red" fill-opacity="0.3"/></g><g pointer-events="all" display="none" transform="translate(17, 71)"><circle cx="8" cy="8" r="4" stroke="none" fill="red" fill-opacity="0.3"/></g><g pointer-events="all" display="none" transform="translate(42, 71)"><circle cx="8" cy="8" r="4" stroke="none" fill="red" fill-opacity="0.3"/></g><g pointer-events="all" display="none" transform="translate(67, 71)"><circle cx="8" cy="8" r="4" stroke="none" fill="red" fill-opacity="0.3"/></g><g pointer-events="all" display="none" transform="translate(91, 12)"><circle cx="8" cy="8" r="4" stroke="none" fill="red" fill-opacity="0.3"/></g><g pointer-events="all" display="none" transform="translate(91, 32)"><circle cx="8" cy="8" r="4" stroke="none" fill="red" fill-opacity="0.3"/></g><g pointer-events="all" display="none" transform="translate(91, 52)"><circle cx="8" cy="8" r="4" stroke="none" fill="red" fill-opacity="0.3"/></g><g pointer-events="all" display="none" transform="translate(17, -7)"><circle cx="8" cy="8" r="4" stroke="none" fill="red" fill-opacity="0.3"/></g><g pointer-events="all" display="none" transform="translate(42, -7)"><circle cx="8" cy="8" r="4" stroke="none" fill="red" fill-opacity="0.3"/></g><g pointer-events="all" display="none" transform="translate(67, -7)"><circle cx="8" cy="8" r="4" stroke="none" fill="red" fill-opacity="0.3"/></g><g pointer-events="all" display="none" transform="translate(42, 32)"><circle cx="8" cy="8" r="4" stroke="none" fill="red" fill-opacity="0.3"/></g></g></g></g><g id="_56720D87-1F80-449A-9E1D-AE5B96ABA3EE" bpmn2nodeid="_D61F4196-001A-45D8-B435-B3519E49E385"><g class="stencils" transform="translate(1610, 350)"><g class="me"><g id="_56720D87-1F80-449A-9E1D-AE5B96ABA3EE">        <defs id="_56720D87-1F80-449A-9E1D-AE5B96ABA3EE__56720D87-1F80-449A-9E1D-AE5B96ABA3EE_4"> 		<radialGradient id="_56720D87-1F80-449A-9E1D-AE5B96ABA3EEbackground" cx="10%" cy="10%" r="100%" fx="10%" fy="10%"> 			<stop offset="0%" stop-color="#ffffff" stop-opacity="1" id="_56720D87-1F80-449A-9E1D-AE5B96ABA3EE__56720D87-1F80-449A-9E1D-AE5B96ABA3EE_5"/> 			<stop id="_56720D87-1F80-449A-9E1D-AE5B96ABA3EEfill_el" offset="100%" stop-color="#f0e68c" stop-opacity="1"/> 		</radialGradient> 		<radialGradient id="_56720D87-1F80-449A-9E1D-AE5B96ABA3EEborderbackground" cx="10%" cy="10%" r="100%" fx="10%" fy="10%"> 			<stop offset="0%" stop-color="#ffffff" stop-opacity="1" id="_56720D87-1F80-449A-9E1D-AE5B96ABA3EE__56720D87-1F80-449A-9E1D-AE5B96ABA3EE_6"/> 			<stop id="_56720D87-1F80-449A-9E1D-AE5B96ABA3EEfill_border" offset="100%" stop-color="#a67f00" stop-opacity="1" stroke="#a67f00"/> 		</radialGradient> 	</defs> 	     <path d=" M0 20.5  L20.5 0  L40 20.5  L20.5 40  z" id="_56720D87-1F80-449A-9E1D-AE5B96ABA3EEbg_frame" fill="url(#_56720D87-1F80-449A-9E1D-AE5B96ABA3EEbackground) white" style="stroke-width:1" stroke="#a67f00"/>     <g id="_56720D87-1F80-449A-9E1D-AE5B96ABA3EEframe" stroke="#a67f00">       <path id="_56720D87-1F80-449A-9E1D-AE5B96ABA3EEframe2" d=" M13.25 12.05  L17.25 12.05  L27.65 28.95  L23.75 28.95  z" style="stroke-width:1" stroke="#a67f00" fill="url(#_56720D87-1F80-449A-9E1D-AE5B96ABA3EEborderbackground)"/>       <path id="_56720D87-1F80-449A-9E1D-AE5B96ABA3EEframe3" d=" M13.25 28.95  L23.75 12.05  L27.65 12.05  L17.25 28.95  z" style="stroke-width:1" stroke="#a67f00" fill="url(#_56720D87-1F80-449A-9E1D-AE5B96ABA3EEborderbackground)"/>     </g> 	 	<text id="_56720D87-1F80-449A-9E1D-AE5B96ABA3EEtext_name" x="30.5" y="30.5" oryx:align="left top" stroke-width="0pt" letter-spacing="-0.01px" fill="#000000" text-anchor="start" transform="rotate(0 30.5 30.5)" visibility="inherit" oryx:fontSize="12"/> 	   </g></g><g class="children" style="overflow:hidden"/><g class="edge"/></g><g class="controls"><g class="dockers"/><g class="magnets" transform="translate(1610, 350)"><g pointer-events="all" display="none" transform="translate(12.5, 12.5)"><circle cx="8" cy="8" r="4" stroke="none" fill="red" fill-opacity="0.3"/></g></g></g></g><g id="_0B17F15F-A24D-48B8-A070-A21D5F66E315" bpmn2nodeid="_E6F86F8C-07AA-4AF0-AD88-167227D078CE"><g class="stencils" transform="translate(1695, 356)"><g class="me"><g pointer-events="fill" id="_0B17F15F-A24D-48B8-A070-A21D5F66E315">        <defs id="_0B17F15F-A24D-48B8-A070-A21D5F66E315__0B17F15F-A24D-48B8-A070-A21D5F66E315_6"> 		<radialGradient id="_0B17F15F-A24D-48B8-A070-A21D5F66E315background" cx="10%" cy="10%" r="100%" fx="10%" fy="10%"> 			<stop offset="0%" stop-color="#ffffff" stop-opacity="1" id="_0B17F15F-A24D-48B8-A070-A21D5F66E315__0B17F15F-A24D-48B8-A070-A21D5F66E315_7"/> 			<stop id="_0B17F15F-A24D-48B8-A070-A21D5F66E315fill_el" offset="100%" stop-color="#ff6347" stop-opacity="1"/> 		</radialGradient> 		<radialGradient id="_0B17F15F-A24D-48B8-A070-A21D5F66E315borderbackground" cx="10%" cy="10%" r="100%" fx="10%" fy="10%"> 			<stop offset="0%" stop-color="#ffffff" stop-opacity="1" id="_0B17F15F-A24D-48B8-A070-A21D5F66E315__0B17F15F-A24D-48B8-A070-A21D5F66E315_8"/> 			<stop id="_0B17F15F-A24D-48B8-A070-A21D5F66E315fill_border" offset="100%" stop-color="#000000" stop-opacity="1" stroke="#000000"/> 		</radialGradient> 	</defs> 	     <circle id="_0B17F15F-A24D-48B8-A070-A21D5F66E315bg_frame" cx="14" cy="14" r="14" stroke="#000000" fill="url(#_0B17F15F-A24D-48B8-A070-A21D5F66E315background) white" stroke-width="3"/>     <path id="_0B17F15F-A24D-48B8-A070-A21D5F66E315frame" d=" M6.7124971 19.247342  L21.333334 19.247342  L14.022915000000001 6.575951200000001  L6.7124971 19.247342  z" style="stroke-width:1.4;stroke-miterlimit:4;stroke-dasharray:none" stroke="#000000" fill="url(#_0B17F15F-A24D-48B8-A070-A21D5F66E315borderbackground)"/> 	<text font-size="11" id="_0B17F15F-A24D-48B8-A070-A21D5F66E315text_name" x="14" y="30" oryx:align="top center" stroke="black" stroke-width="0pt" letter-spacing="-0.01px" fill="#000000" text-anchor="middle" transform="rotate(0 14 30)" visibility="inherit" oryx:fontSize="11"/>   </g></g><g class="children" style="overflow:hidden"/><g class="edge"/></g><g class="controls"><g class="dockers"/><g class="magnets" transform="translate(1695, 356)"><g pointer-events="all" display="none" transform="translate(6, 6)"><circle cx="8" cy="8" r="4" stroke="none" fill="red" fill-opacity="0.3"/></g></g></g></g></g><g class="edge"><g id="_9FC8BB20-E681-4636-84AF-2FFA298EB0F8" bpmn2nodeid="_5C2614FC-8D48-478E-A793-B54FF624DCB5"><g class="stencils"><g class="me"><g pointer-events="painted" bpmn2nodeid="_5C2614FC-8D48-478E-A793-B54FF624DCB5"><path id="_9FC8BB20-E681-4636-84AF-2FFA298EB0F8_1" d="M1305.609375 370L1349.15625 370 " stroke="#000000" fill="none" stroke-width="2" stroke-linecap="round" stroke-linejoin="round" marker-start="url(#_9FC8BB20-E681-4636-84AF-2FFA298EB0F8start)" marker-end="url(#_9FC8BB20-E681-4636-84AF-2FFA298EB0F8end)"/></g><text id="_9FC8BB20-E681-4636-84AF-2FFA298EB0F8text_name" font-size="12" x="1319.609375" y="356" oryx:edgePosition="startTop" stroke-width="0pt" letter-spacing="-0.01px" fill="#000000" text-anchor="start" transform="rotate(360 1305.609375 370)" visibility="inherit" oryx:fontSize="12"/></g><g class="children" style="overflow:hidden"/><g class="edge"/></g><g class="controls"><g class="dockers"/><g class="magnets"/></g></g><g id="_38D79760-46B2-4449-B443-770602F4C54E" bpmn2nodeid="_4918B306-FF1B-48CE-9AC6-B73D5A582F15"><g class="stencils"><g class="me"><g pointer-events="painted" bpmn2nodeid="_4918B306-FF1B-48CE-9AC6-B73D5A582F15"><path id="_38D79760-46B2-4449-B443-770602F4C54E_1" d="M1450.6288968799925 370.2191727137662L1494.6484468700075 370.4097335362338 " stroke="#000000" fill="none" stroke-width="2" stroke-linecap="round" stroke-linejoin="round" marker-start="url(#_38D79760-46B2-4449-B443-770602F4C54Estart)" marker-end="url(#_38D79760-46B2-4449-B443-770602F4C54Eend)"/></g><text id="_38D79760-46B2-4449-B443-770602F4C54Etext_name" font-size="12" x="1464.6288968799925" y="356.2191727137662" oryx:edgePosition="startTop" stroke-width="0pt" letter-spacing="-0.01px" fill="#000000" text-anchor="start" transform="rotate(0.24803212815641018 1450.6288968799925 370.2191727137662)" visibility="inherit" oryx:fontSize="12"/></g><g class="children" style="overflow:hidden"/><g class="edge"/></g><g class="controls"><g class="dockers"/><g class="magnets"/></g></g><g id="_1FE0AADB-A776-4D81-B0A2-E2DEA5211A2F" bpmn2nodeid="_DFD134FA-CF6D-49DE-9B83-F88F2ED236AC"><g class="stencils"><g class="me"><g pointer-events="painted" bpmn2nodeid="_DFD134FA-CF6D-49DE-9B83-F88F2ED236AC"><path id="_1FE0AADB-A776-4D81-B0A2-E2DEA5211A2F_1" d="M1515.4138194081268 349.7304773585561L1515.1682118418732 290.5390538914439 " stroke="#000000" fill="none" stroke-width="2" stroke-linecap="round" stroke-linejoin="round" marker-start="url(#_1FE0AADB-A776-4D81-B0A2-E2DEA5211A2Fstart)" marker-end="url(#_1FE0AADB-A776-4D81-B0A2-E2DEA5211A2Fend)"/></g><text id="_1FE0AADB-A776-4D81-B0A2-E2DEA5211A2Ftext_name" font-size="12" x="1501.4138194081268" y="335.7304773585561" oryx:edgePosition="startTop" stroke-width="0pt" letter-spacing="-0.01px" fill="#000000" text-anchor="end" transform="rotate(89.7622595407055 1515.4138194081268 349.7304773585561)" visibility="inherit" oryx:fontSize="12"/></g><g class="children" style="overflow:hidden"/><g class="edge"/></g><g class="controls"><g class="dockers"/><g class="magnets"/></g></g><g id="_44440B58-5497-4B8F-B4CD-65AA8AC94EE4" bpmn2nodeid="_0984014E-9433-457C-A853-ECA6237CA115"><g class="stencils"><g class="me"><g pointer-events="painted" bpmn2nodeid="_0984014E-9433-457C-A853-ECA6237CA115"><path id="_44440B58-5497-4B8F-B4CD-65AA8AC94EE4_1" d="M1565.62890625 250L1630.5 250 L1630.5 349.73046875 " stroke="#000000" fill="none" stroke-width="2" stroke-linecap="round" stroke-linejoin="round" marker-start="url(#_44440B58-5497-4B8F-B4CD-65AA8AC94EE4start)" marker-end="url(#_44440B58-5497-4B8F-B4CD-65AA8AC94EE4end)"/></g><text id="_44440B58-5497-4B8F-B4CD-65AA8AC94EE4text_name" font-size="12" x="1579.62890625" y="236" oryx:edgePosition="startTop" stroke-width="0pt" letter-spacing="-0.01px" fill="#000000" text-anchor="start" transform="rotate(360 1565.62890625 250)" visibility="inherit" oryx:fontSize="12"/></g><g class="children" style="overflow:hidden"/><g class="edge"/></g><g class="controls"><g class="dockers"/><g class="magnets"/></g></g><g id="_35C611A0-09D4-4685-B269-3983C9105686" bpmn2nodeid="_5192C1B0-13E5-4F64-AA01-7D237BD9B35F"><g class="stencils"><g class="me"><g pointer-events="painted" bpmn2nodeid="_5192C1B0-13E5-4F64-AA01-7D237BD9B35F"><path id="_35C611A0-09D4-4685-B269-3983C9105686_1" d="M1535.2851467156117 370.4136019794078L1610.2148532843883 370.0863980205922 " stroke="#000000" fill="none" stroke-width="2" stroke-linecap="round" stroke-linejoin="round" marker-start="url(#_35C611A0-09D4-4685-B269-3983C9105686start)" marker-end="url(#_35C611A0-09D4-4685-B269-3983C9105686end)"/></g><text id="_35C611A0-09D4-4685-B269-3983C9105686text_name" font-size="12" x="1549.2851467156117" y="356.4136019794078" oryx:edgePosition="startTop" stroke-width="0pt" letter-spacing="-0.01px" fill="#000000" text-anchor="start" transform="rotate(359.74980167980243 1535.2851467156117 370.4136019794078)" visibility="inherit" oryx:fontSize="12"/></g><g class="children" style="overflow:hidden"/><g class="edge"/></g><g class="controls"><g class="dockers"/><g class="magnets"/></g></g><g id="_12DCFA86-B0D2-4215-855E-3730A40BA390" bpmn2nodeid="_CAC5E20D-44BE-4F97-8ADC-6D1934B05E9E"><g class="stencils"><g class="me"><g pointer-events="painted" bpmn2nodeid="_CAC5E20D-44BE-4F97-8ADC-6D1934B05E9E"><path id="_12DCFA86-B0D2-4215-855E-3730A40BA390_1" d="M1649.8984172158187 370.37644320244704L1694.5078327841813 370.09230679755296 " stroke="#000000" fill="none" stroke-width="2" stroke-linecap="round" stroke-linejoin="round" marker-start="url(#_12DCFA86-B0D2-4215-855E-3730A40BA390start)" marker-end="url(#_12DCFA86-B0D2-4215-855E-3730A40BA390end)"/></g><text id="_12DCFA86-B0D2-4215-855E-3730A40BA390text_name" font-size="12" x="1663.8984172158187" y="356.37644320244704" oryx:edgePosition="startTop" stroke-width="0pt" letter-spacing="-0.01px" fill="#000000" text-anchor="start" transform="rotate(359.6350636642693 1649.8984172158187 370.37644320244704)" visibility="inherit" oryx:fontSize="12"/></g><g class="children" style="overflow:hidden"/><g class="edge"/></g><g class="controls"><g class="dockers"/><g class="magnets"/></g></g></g><text id="_D8CDB611-852D-4B9E-8F5A-8E31784BA007" style="stroke-width:1;fill:rgb(177,194,214);font-family:arial;font-weight:bold" font-size="12" onclick="ORYX.Plugins.CanvasTitle.openTextualAnalysis()" onmouseover="ORYX.Plugins.CanvasTitle.addToolTip('_D8CDB611-852D-4B9E-8F5A-8E31784BA007')" transform="translate(10, 20)">ReverseFlowBR v.1.0 (src.ReverseFlowBR)</text></g></g></svg>